<?xml version="1.0" standalone="no"?><!DOCTYPE svg PUBLIC "-//W3C//DTD SVG 1.1//EN" "http://www.w3.org/Graphics/SVG/1.1/DTD/svg11.dtd"><svg t="1710989493770" class="icon" viewBox="0 0 1024 1024" version="1.1" xmlns="http://www.w3.org/2000/svg" p-id="25415" xmlns:xlink="http://www.w3.org/1999/xlink" width="200" height="200"><path d="M635.8 106c40 4.2 67.8 34 71.8 74 5.6 57.4 12 160 12 332 0 213.8-9.8 329.8-16 381.4-2.4 19.6-19 33.6-38.8 33.6H152c-19.8 0-36.6-14-38.8-33.6-6.2-51.6-16-167.6-16-381.4 0-172 6.4-274.6 12-332 4-40 31.8-69.8 71.8-74 43.4-4.6 114.4-9 227.6-9s183.8 4.4 227.2 9z" fill="#BC95FF" p-id="25416"></path><path d="M221.6 255.4c0-16.4 12.8-30 29.4-30.8 32.6-1.4 89.6-3.2 157.4-3.2s124.8 1.8 157.4 3.2c16.4 0.6 29.4 14.2 29.4 30.8v15c0 16.4-12.8 30-29.4 30.8-32.6 1.4-89.6 3.2-157.4 3.2s-124.8-1.8-157.4-3.2c-16.4-0.6-29.4-14.2-29.4-30.8v-15z m0 329c0-15.2 11-28 26-29.2 10-0.8 22.4-1.6 36.2-1.6s26.2 0.6 36.2 1.6c15 1.2 26 14.2 26 29.2v21.4c0 15.2-11 28-26 29.2-10 0.8-22.4 1.6-36.2 1.6s-26.2-0.6-36.2-1.6c-15-1.2-26-14.2-26-29.2v-21.4z m27.8-194.4c-16 1-28 14.4-28 30.2v17.6c0 16 12 29.2 28 30.2 18.6 1.2 45.2 2.4 75.8 2.4s57.2-1.2 75.8-2.4c16-1 28-14.4 28-30.2v-17.6c0-16-12-29.2-28-30.2-18.6-1.2-45.2-2.4-75.8-2.4s-57.2 1.2-75.8 2.4z" fill="#FFFFFA" p-id="25417"></path><path d="M657.2 927h222.4c19.8 0 36.6-14 39-33.6 3.8-31.4 8.4-84 8.4-155.2 0-74.8-5.2-123.8-9-150.6-2.4-16.4-9.4-31.6-20.6-43.8-48-52-148-129-220-151.4-13.2-4-27-4-40.2 0-72 22.4-172 99.4-220 151.4-11.2 12.2-18.2 27.4-20.6 43.8-4 26.8-9 76-9 150.6 0 71.2 4.6 123.8 8.4 155.2 2.4 19.6 19.2 33.6 39 33.6h222.2z" fill="#9659FF" p-id="25418"></path><path d="M760.6 927H554c-0.4-15.6-0.4-33.8-0.4-55.4 0-66 1.8-102 3.2-120.4 0.8-10.6 6.8-19.8 17-22.8 14.2-4.2 40-9 83.4-9s69.2 4.8 83.4 9c10.2 3 16.2 12.2 17 22.8 1.4 18.4 3.2 54.4 3.2 120.4 0.2 21.6 0 39.8-0.2 55.4z" fill="#E0CCFF" p-id="25419"></path></svg>