<?xml version="1.0" standalone="no"?><!DOCTYPE svg PUBLIC "-//W3C//DTD SVG 1.1//EN" "http://www.w3.org/Graphics/SVG/1.1/DTD/svg11.dtd"><svg t="1710989533976" class="icon" viewBox="0 0 1024 1024" version="1.1" xmlns="http://www.w3.org/2000/svg" p-id="27408" xmlns:xlink="http://www.w3.org/1999/xlink" width="200" height="200"><path d="M768 89.6H256c-93.866667 0-170.666667 76.8-170.666667 170.666667v512c0 93.866667 76.8 170.666667 170.666667 170.666666h512c93.866667 0 170.666667-76.8 170.666667-170.666666v-512c0-93.866667-76.8-170.666667-170.666667-170.666667z m-174.933333 674.133333c0 17.066667-12.8 25.6-25.6 25.6h-110.933334c-17.066667 0-25.6-12.8-25.6-25.6v-25.6h162.133334v25.6z m25.6-170.666666v59.733333c0 17.066667-12.8 25.6-25.6 25.6H426.666667c-17.066667 0-25.6-12.8-25.6-25.6v-59.733333c-51.2-34.133333-81.066667-89.6-81.066667-157.866667 0-106.666667 85.333333-192 192-192s192 85.333333 192 192c-4.266667 64-34.133333 123.733333-85.333333 157.866667z" fill="#66C060" p-id="27409"></path></svg>