<?xml version="1.0" standalone="no"?><!DOCTYPE svg PUBLIC "-//W3C//DTD SVG 1.1//EN" "http://www.w3.org/Graphics/SVG/1.1/DTD/svg11.dtd"><svg t="1710945892563" class="icon" viewBox="0 0 1024 1024" version="1.1" xmlns="http://www.w3.org/2000/svg" p-id="15384" xmlns:xlink="http://www.w3.org/1999/xlink" width="200" height="200"><path d="M814.2848 581.2736a164.7616 104.8576 90 1 0 209.7152 0 164.7616 104.8576 90 1 0-209.7152 0Z" fill="#0C61C6" p-id="15385"></path><path d="M5.3248 611.2256a164.7616 104.8576 90 1 0 209.7152 0 164.7616 104.8576 90 1 0-209.7152 0Z" fill="#0C61C6" p-id="15386"></path><path d="M514.6624 985.7536c256.4608 0 464.384-161.1776 464.384-423.3728 0-249.7024-210.432-411.2896-464.384-423.3728-42.752-6.2464 24.4224-112.0768 24.4224-112.0768S50.2784 132.1984 50.2784 562.3808c0 261.9392 207.9232 423.3728 464.384 423.3728z" fill="#2B83E2" p-id="15387"></path><path d="M140.1344 641.1776a374.528 314.5728 0 1 0 749.056 0 374.528 314.5728 0 1 0-749.056 0Z" fill="#FFFFFF" p-id="15388"></path><path d="M274.9952 641.1776a89.9072 59.904 90 1 0 119.808 0 89.9072 59.904 90 1 0-119.808 0Z" fill="#2B83E2" p-id="15389"></path><path d="M634.5216 641.1776a89.9072 59.904 90 1 0 119.808 0 89.9072 59.904 90 1 0-119.808 0Z" fill="#2B83E2" p-id="15390"></path></svg>