<?xml version="1.0" standalone="no"?><!DOCTYPE svg PUBLIC "-//W3C//DTD SVG 1.1//EN" "http://www.w3.org/Graphics/SVG/1.1/DTD/svg11.dtd"><svg t="1710989344303" class="icon" viewBox="0 0 1024 1024" version="1.1" xmlns="http://www.w3.org/2000/svg" p-id="8660" xmlns:xlink="http://www.w3.org/1999/xlink" width="200" height="200"><path d="M356.503704 925.392593a151.703704 47.407407 0 1 0 303.407407 0 151.703704 47.407407 0 1 0-303.407407 0Z" fill="#F9D523" p-id="8661"></path><path d="M877.985185 417.185185c0 189.62963-263.585185 422.874074-343.229629 489.244445-13.274074 11.377778-32.237037 11.377778-45.511112 0C409.6 840.059259 146.014815 606.814815 146.014815 417.185185 146.014815 214.281481 309.096296 51.2 512 51.2S877.985185 214.281481 877.985185 417.185185z" fill="#EF6926" p-id="8662"></path><path d="M512 373.57037m-106.192593 0a106.192593 106.192593 0 1 0 212.385186 0 106.192593 106.192593 0 1 0-212.385186 0Z" fill="#FFFFFF" p-id="8663"></path></svg>