<?xml version="1.0" standalone="no"?><!DOCTYPE svg PUBLIC "-//W3C//DTD SVG 1.1//EN" "http://www.w3.org/Graphics/SVG/1.1/DTD/svg11.dtd"><svg t="1710989577359" class="icon" viewBox="0 0 1024 1024" version="1.1" xmlns="http://www.w3.org/2000/svg" p-id="29676" xmlns:xlink="http://www.w3.org/1999/xlink" width="200" height="200"><path d="M759.976737 613.738288l254.428433-179.324072-29.115348-93.63231-2.977706-11.579967h-312.328271L578.998384 35.401616l-74.442649-0.992569-36.063328-0.992569-94.955735 294.462036-329.863651 0.661712-34.409047 104.550566 266.670113 187.26462-101.903715 304.056866 79.736349 59.223263 8.271405 6.947981 259.391276-190.242327 238.216478 190.242327 82.714055-54.591276 9.594831-5.624556-0.330856-0.661713h0.330856l-91.978029-315.967689z m205.461712-262.699839l16.542811 64.847819-431.105654-0.661712 18.527948-64.186107h396.034895z m-599.51147 71.7958l119.108239-367.250404h0.330856l69.479806 1.985137L418.202262 469.815832 363.941842 433.421648l1.985137-10.587399z m-330.525363 1.985137l23.821647-62.200969 352.692731 248.142165-52.606139 41.687883-67.825525-47.643295-256.082714-179.985784zM263.030695 962.791599l-51.944427-42.349596 36.063328-26.468497 50.951858 43.011308-35.070759 25.806785z m70.472374-51.944426l-50.951857-43.011309 34.739903-25.475929 50.951858 43.011309-34.739904 25.475929z m210.0937-154.509855L492.975767 713.656866l-17.866235 12.903392-17.866236 12.903393 50.621001 42.680452-34.739903 25.475929-50.621001-42.680452-17.866236 12.903393-17.866236 12.903392 50.951858 42.680452-34.739903 25.475929-50.951858-43.011308 175.684652-128.70307 50.621002 42.680453-34.739903 26.468497z m224.982229 197.521163l-119.439095-414.231987h66.832956L826.478837 919.780291l-57.899839 34.07819z" fill="#FF636B" p-id="29677"></path></svg>