<?xml version="1.0" standalone="no"?><!DOCTYPE svg PUBLIC "-//W3C//DTD SVG 1.1//EN" "http://www.w3.org/Graphics/SVG/1.1/DTD/svg11.dtd"><svg t="1711010178630" class="icon" viewBox="0 0 1024 1024" version="1.1" xmlns="http://www.w3.org/2000/svg" p-id="6260" xmlns:xlink="http://www.w3.org/1999/xlink" width="200" height="200"><path d="M509.44 0c277.056 0 502.464 221.12 509.344 496.544l0.16 12.896-0.16 12.96c-6.88 275.392-232.288 496.544-509.344 496.544C228.096 1018.944 0 790.848 0 509.504 0 228.064 228.096 0 509.44 0z m1.728 383.808a48 48 0 0 0-47.776 43.072l-0.224 4.928v312.96l0.224 4.864a48 48 0 0 0 95.552 0l0.224-4.896v-312.928l-0.224-4.928a48 48 0 0 0-47.776-43.072z m-1.984-194.624a53.056 53.056 0 1 0 0 106.144 53.056 53.056 0 0 0 0-106.144z" fill="#3059DA" p-id="6261"></path></svg>