<?xml version="1.0" standalone="no"?><!DOCTYPE svg PUBLIC "-//W3C//DTD SVG 1.1//EN" "http://www.w3.org/Graphics/SVG/1.1/DTD/svg11.dtd"><svg t="1710945838333" class="icon" viewBox="0 0 1024 1024" version="1.1" xmlns="http://www.w3.org/2000/svg" p-id="11211" xmlns:xlink="http://www.w3.org/1999/xlink" width="200" height="200"><path d="M15.872 512c0 273.92 222.208 496.128 496.128 496.128s496.128-222.208 496.128-496.128S785.92 15.872 512 15.872 15.872 238.08 15.872 512z" fill="#DEEDFF" p-id="11212"></path><path d="M512 15.872c273.92 0 496.128 222.208 496.128 496.128s-222.208 496.128-496.128 496.128S15.872 785.92 15.872 512 238.08 15.872 512 15.872z m0 31.232C254.976 47.104 47.104 254.976 47.104 512s208.384 464.896 464.896 464.896 464.896-208.384 464.896-464.896S769.024 47.104 512 47.104z" fill="#00B4FF" p-id="11213"></path><path d="M718.336 454.144c0 125.952-90.624 228.352-202.752 228.352-112.128 0-202.752-102.4-202.752-228.352s90.624-228.352 202.752-228.352c112.128 0 202.752 102.4 202.752 228.352" fill="#F6CAA9" p-id="11214"></path><path d="M437.248 646.656h155.648v128.512H436.736l0.512-128.512z m-98.816-179.2c0 18.944-13.824 34.304-31.232 34.304-17.408 0-31.232-15.36-31.232-34.304s13.824-34.304 31.232-34.304 31.232 15.36 31.232 34.304m416.256-0.512c0 18.944-13.824 34.304-31.232 34.304s-31.232-15.36-31.232-34.304 13.824-34.304 31.232-34.304 31.232 15.872 31.232 34.304" fill="#F6CAA9" p-id="11215"></path><path d="M437.248 665.088s29.696 15.36 72.192 15.36c50.176 2.048 82.944-14.848 82.944-14.848v15.36s-55.296 29.696-79.872 29.696c-25.088 0-75.264-34.816-75.264-34.816v-10.752z m52.224-495.616s-137.216 13.824-138.752 103.424C349.696 363.008 456.704 379.904 496.64 390.144c39.936 9.728 148.992 22.528 212.992-81.408 0 0-17.408-40.96-27.136-69.12-4.096-7.168 6.656 12.8-31.744-11.776-37.888-24.064-89.6-64-161.28-58.368" fill="#ECB485" p-id="11216"></path><path d="M393.728 218.624S293.888 235.52 288.256 324.608c-5.632 89.6 10.24 113.152 10.24 113.152s22.528 0 28.16 33.792c0 0 10.24 6.144 11.264 0 1.536-10.24-9.216-59.392 12.288-104.448 20.992-45.056 41.472-51.712 41.472-51.712l2.048-96.768z m262.656 97.792s26.624 34.304 31.232 69.12c4.096 29.184 9.216 84.48 9.216 84.48s7.68 5.12 12.8-7.168c5.12-12.8 4.096-25.088 8.704-28.672 26.112-17.408 19.456-90.112 17.92-97.792-6.144-32.768-32.768-84.992-32.768-84.992l-47.104 65.024z" fill="#3F3F3F" p-id="11217"></path><path d="M486.4 139.264s-141.824 5.632-143.36 100.352c-1.536 94.208 110.592 120.832 150.528 131.584 39.936 10.24 148.992 23.552 212.992-85.504 0 0 15.872-49.664 6.656-79.36-4.096-7.68-26.624 19.968-65.024-5.632-38.912-25.6-90.112-67.072-161.792-61.44" fill="#3F3F3F" p-id="11218"></path><path d="M873.984 850.944c-25.088-19.968-72.704-49.152-119.808-71.68-76.288-37.376-161.792-53.76-161.792-53.76v2.56c-6.144 6.656-36.352 36.352-77.312 36.352-40.448 0-71.168-27.648-77.824-34.816l-0.512-3.584s-81.92 11.264-158.72 48.64c-52.224 25.6-104.96 58.88-127.488 78.336 93.696 99.84 224.256 156.16 360.96 155.648 143.36-0.512 272.384-60.928 362.496-157.696z" fill="#00B4FF" p-id="11219"></path></svg>